<?xml version="1.0" encoding="UTF-8" standalone="no" ?>
<!DOCTYPE svg PUBLIC "-//W3C//DTD SVG 1.1//EN" "http://www.w3.org/Graphics/SVG/1.1/DTD/svg11.dtd">
<svg xmlns="http://www.w3.org/2000/svg" xmlns:xlink="http://www.w3.org/1999/xlink" version="1.1" width="1000" height="300" viewBox="0 0 1000 300" xml:space="preserve">
<desc>Created with Fabric.js 4.6.0</desc>
<defs>
</defs>
<g transform="matrix(1 0 0 1 470.98 150)" id="fUgw5Ef245irzsFJaqwQG"  >
<g style="" vector-effect="non-scaling-stroke"   >
		<g transform="matrix(3.78 0 0 3.78 -31.62 0)" id="xAe7CEnALkCdZssZmspMm"  >
<path style="stroke: none; stroke-width: 0.22; stroke-dasharray: none; stroke-linecap: butt; stroke-dashoffset: 0; stroke-linejoin: miter; stroke-miterlimit: 4; fill: rgb(0,0,0); fill-rule: nonzero; opacity: 1;" vector-effect="non-scaling-stroke"  transform=" translate(-138.06, -174.59)" d="M 127.01223 210.10281 C 127.01323000000001 209.01734000000002 128.17328 207.64383 129.66116 206.96455 C 130.21928 206.70968 130.56014 206.35823 130.7801 205.81066 C 130.95407 205.37756000000002 131.06636 204.99144 131.02963 204.95260000000002 C 130.99293 204.9138 130.55075 205.15460000000002 130.04707 205.48803 C 128.85499 206.27692000000002 127.05367999999999 206.36885 126.69438999999998 205.65923 L 126.46625999999999 205.20861000000002 L 125.38063999999999 205.71077000000002 C 124.10701999999999 206.29989000000003 122.00789999999999 206.40974000000003 121.59233999999998 205.90891000000002 C 121.37011999999999 205.64115 121.23565999999998 205.64115 120.59481999999998 205.90891000000002 C 120.18743999999998 206.07908000000003 119.50873999999999 206.21839000000003 119.08656999999998 206.21839000000003 C 118.48099999999998 206.21839000000003 118.31901999999998 206.13239000000002 118.31901999999998 205.81101000000004 C 118.31901999999998 205.41516000000004 118.29491999999998 205.41557000000003 117.46707999999998 205.82641000000004 C 116.38281999999998 206.36286000000004 115.05181999999998 206.28935000000004 114.73839999999998 205.67574000000005 C 114.54473999999999 205.29663000000005 114.40405999999999 205.26462000000004 113.64684999999999 205.42756000000006 C 113.16877999999998 205.53053000000006 112.40518999999999 205.76817000000005 111.95001999999998 205.95585000000005 C 111.49483999999998 206.14347000000006 110.63066999999998 206.30411000000007 110.02961999999998 206.31268000000006 C 109.12314999999998 206.32538000000005 108.86365999999998 206.23808000000005 108.50776999999998 205.79877000000005 C 107.15822999999997 204.13316000000006 110.86751999999998 201.30926000000005 113.48386999999998 202.01042000000004 C 113.75278999999998 202.08252000000005 113.97280999999998 202.23731000000004 113.97280999999998 202.35475000000005 C 113.97280999999998 202.48690000000005 113.48727999999998 202.51158000000007 112.69710999999998 202.41995000000006 C 111.47281999999998 202.27776000000006 111.38873999999998 202.30055000000004 110.61172999999998 202.98277000000004 C 108.80701999999998 204.56730000000005 109.25950999999998 206.39670000000004 111.29126999999998 205.73006000000004 C 112.08614999999999 205.46925000000005 112.11497999999999 205.42550000000003 112.05335999999998 204.57355000000004 C 111.98055999999998 203.56703000000005 112.35398999999998 203.10263000000003 113.14593999999998 203.21489000000005 C 113.78449999999998 203.30559000000005 113.93274999999998 204.14240000000007 113.41211999999999 204.71766000000005 C 112.91242999999999 205.26981000000006 113.09441999999999 205.40668000000005 113.93744999999998 205.11280000000005 C 114.38829999999999 204.95572000000004 114.74988999999998 204.60904000000005 114.98924999999998 204.10462000000004 C 115.64840999999998 202.71555000000004 118.14515999999999 201.52639000000005 119.29884999999999 202.05204000000003 C 119.79036999999998 202.27612000000002 119.83627999999999 202.21863000000005 120.44934999999998 200.61252000000005 C 120.80053999999998 199.69247000000004 121.15671999999998 198.53179000000006 121.24084999999998 198.03318000000004 C 121.38306999999998 197.19025000000005 121.81671999999998 196.72814000000005 122.22738999999999 196.98194000000004 C 122.58626999999998 197.20369000000002 121.54460999999999 200.49345000000002 120.13846999999998 203.57904000000005 C 119.47861999999998 205.02697000000006 119.22560999999999 206.00228000000004 119.50980999999999 206.00228000000004 C 119.56720999999999 206.00228000000004 119.99838999999999 205.84853000000004 120.46809999999999 205.66057000000004 C 121.04405 205.43009000000004 121.36568999999999 205.14530000000005 121.45590999999999 204.78586000000004 C 121.62382 204.11684000000005 122.98033999999998 202.59828000000005 123.77895999999998 202.18530000000004 C 124.40713999999998 201.86045000000004 125.42483999999999 201.77854000000005 126.01573999999998 202.00538000000003 C 126.37535999999999 202.14348000000004 126.45792999999998 202.66789000000003 126.21833999999998 203.29225000000002 C 126.07982999999999 203.65302000000003 123.27169999999998 205.1331 122.72566999999998 205.1331 C 122.57289999999998 205.1331 122.44788999999997 205.22760000000002 122.44788999999997 205.3428 C 122.44788999999997 205.70769 123.28505999999997 206.01783 123.91028999999997 205.88456000000002 C 124.76050999999997 205.70336000000003 126.57678999999997 204.87531 126.57678999999997 204.66895000000002 C 126.57678999999997 204.22915000000003 128.09487999999996 202.84054000000003 129.07425999999998 202.38445000000002 C 130.49729999999997 201.72179000000003 132.87877999999998 201.69236 132.87877999999998 202.33745000000002 C 132.87877999999998 202.45345000000003 132.29229999999998 202.47752000000003 131.48331 202.39465 C 130.28807999999998 202.27228000000002 129.98156999999998 202.31735 129.34718999999998 202.70944 C 128.05400999999998 203.50868 127.49843999999999 205.10354 128.33067999999997 205.62754 C 128.80327999999997 205.92513000000002 130.14257999999998 205.26172 131.19608999999997 204.20819 C 131.92714999999998 203.47715 133.09608999999998 202.78149 133.09608999999998 203.07748 C 133.09608999999998 203.13598000000002 132.79086999999998 203.72484 132.41782999999998 204.38583 C 132.04478999999998 205.04682 131.79083999999997 205.63891999999998 131.85349999999997 205.70157 C 132.05733999999998 205.90537 133.74800999999997 204.91623 133.74800999999997 204.59311 C 133.74800999999997 204.07227 135.09911999999997 202.7008 136.02789999999996 202.27886 C 136.96162999999996 201.8547 138.01935999999995 201.76397 138.49769999999995 202.06712000000002 C 138.94766999999996 202.35224000000002 138.51309999999995 202.50008000000003 137.35363999999996 202.45640000000003 C 136.38950999999994 202.42000000000004 136.24925999999996 202.48290000000003 135.59075999999996 203.24446000000003 C 134.80477999999997 204.15359000000004 134.47295999999997 205.07592000000002 134.81044999999997 205.41341000000003 C 135.17334999999997 205.77634000000003 136.29596999999998 205.15932000000004 137.25191999999998 204.07162000000002 C 138.01792999999998 203.20000000000002 138.96344 202.53464000000002 138.96344 202.86719000000002 C 138.96344 202.92779000000002 138.78041 203.34033000000002 138.55671999999998 203.78377000000003 C 137.88875 205.10783000000004 137.79650999999998 205.56793000000005 138.19901 205.56793000000005 C 138.39228 205.56793000000005 138.84801 205.41393000000005 139.21174 205.22591000000006 C 139.57547 205.03778000000005 139.92776999999998 204.93864000000005 139.99462 205.00545000000005 C 140.18381 205.19461000000004 137.70672 206.26122000000007 137.27928 206.17463000000006 C 137.04734 206.12763000000007 136.90574 205.90949000000006 136.91626 205.61543000000006 C 136.93776 205.01638000000005 136.93936 205.01628000000005 135.96779 205.67643000000007 C 134.99018 206.34073000000006 134.06946000000002 206.38570000000007 133.74790000000002 205.78478000000007 C 133.51695 205.35322000000008 133.50779000000003 205.35367000000008 132.53740000000002 205.84678000000008 C 131.73046000000002 206.25688000000008 131.43758000000003 206.5875900000001 130.86102000000002 207.7397100000001 C 130.10425000000004 209.2519300000001 128.97535000000002 210.23689000000007 127.71766000000002 210.48225000000008 C 127.08029000000002 210.6067500000001 127.01149000000002 210.56975000000008 127.01223000000002 210.10392000000007 z M 128.79563 209.53239 C 129.40042 208.88891999999998 130.31946 207.28094 130.16863999999998 207.1301 C 129.96698999999998 206.92836 128.50233999999998 208.03695 128.20135 208.61901 C 127.8535 209.29168 127.77358999999998 210.12999 128.05731 210.12999 C 128.15451 210.12999 128.48671 209.86105999999998 128.79563 209.53239 z M 117.83782 205.3019 C 118.65884 204.80473999999998 119.68963 202.98377 119.40800999999999 202.5281 C 118.69702999999998 201.37771999999998 115.71131 203.43690999999998 115.71131 205.07762 C 115.71131 206.06056 116.45536 206.13900999999998 117.83782 205.30196 z M 113.32088999999999 203.91004999999998 C 113.32088999999999 203.62590999999998 113.23348999999999 203.39338999999998 113.12682 203.39338999999998 C 112.88734 203.39338999999998 112.66897 203.93274 112.66897 204.52433 C 112.66897 204.89385 112.72337 204.92267999999999 112.99492000000001 204.69732 C 113.17420000000001 204.54846999999998 113.32089 204.19428 113.32089 203.91013999999998 z M 123.53482 204.47975 C 124.63283 203.91959 125.27293 203.22432 125.27293 202.59183 C 125.27293 201.63119999999998 124.16449 202.17546 123.08448 203.66637 C 122.11188 205.00902 122.19678 205.16238 123.53482 204.47975 z M 142.4404 210.03337 C 142.4404 209.98027 143.22234 208.20334 144.17804 206.08472999999998 C 145.13374000000002 203.96613999999997 145.87587000000002 202.19292 145.82721 202.14425999999997 C 145.77861000000001 202.09555999999998 145.19219 202.19505999999998 144.52419 202.36524999999997 C 143.85619 202.53539999999998 143.30965 202.59572999999997 143.30965 202.49922999999998 C 143.30965 202.33933 143.83468 202.16355 145.55749 201.74712999999997 C 146.07953 201.62078999999997 146.3186 201.28949999999998 147.09648 199.61351999999997 C 147.78041000000002 198.13995999999997 148.16928000000001 197.56009999999998 148.60744000000003 197.36043999999995 C 149.43952000000002 196.98132999999996 150.13460000000003 197.02617999999995 150.71540000000002 197.49654999999996 L 151.21539 197.90142999999995 L 150.73018000000002 198.16109999999995 C 150.31566 198.38285999999994 150.19067 198.35359999999994 149.87208 197.96013999999994 C 149.64031 197.67397999999994 149.36488 197.55111999999994 149.14456 197.63568999999993 C 148.81839000000002 197.76088999999993 147.22122000000002 200.9111699999999 147.22122000000002 201.4293499999999 C 147.22122000000002 201.55667999999991 147.71463000000003 201.65520999999993 148.35122 201.65520999999993 C 149.22574 201.65520999999993 149.42268 201.71370999999994 149.22228 201.91415999999992 C 149.07547000000002 202.06097999999992 148.51100000000002 202.14900999999992 147.91936 202.11769999999993 L 146.87541000000002 202.06219999999993 L 145.16996 205.93320999999995 C 144.23196000000002 208.06226999999996 143.35633 209.87606999999994 143.2241 209.96385999999995 C 142.9591 210.13993999999997 142.44039999999998 210.18588999999994 142.44039999999998 210.03365999999994 z M 93.21220200000002 206.22895 C 92.47108000000001 205.92854 92.18582900000001 205.39412 92.20687900000001 204.34548999999998 C 92.23074900000002 203.16106 92.95307800000002 201.55114999999998 93.67224100000001 201.07994 C 94.47731800000001 200.55244 94.68740300000002 200.82048 94.12346200000002 201.65564 C 92.11788500000002 204.62574 93.55088200000002 206.98416 96.49511100000002 205.55888000000002 C 98.45050000000002 204.61229000000003 100.25778000000003 202.10475000000002 102.71538000000002 196.92844000000002 C 103.82308000000002 194.59533000000002 104.04484000000002 194.26639000000003 104.51010000000002 194.26639000000003 C 105.03903000000003 194.26639000000003 105.03972000000002 194.26939000000002 104.70140000000002 195.08129000000002 C 103.73767000000002 197.39410000000004 102.36979000000002 200.09543000000002 101.49947000000002 201.40459 C 99.12017100000001 204.98356 95.43390900000001 207.12948 93.21221300000002 206.22895000000003 z M 101.39561000000002 206.22195 C 100.99200000000002 206.12545 100.41747000000002 205.80214999999998 100.11888000000002 205.50355 L 99.57600300000001 204.96067 L 100.05562000000002 204.70399 C 100.43980000000002 204.49839 100.58575000000002 204.50917 100.78906000000002 204.75869 C 102.24583000000003 206.54559 105.52229000000003 205.85559 106.74807000000003 203.50379 C 107.61749000000003 201.83573 107.46213000000003 200.32977 106.32163000000003 199.37011 C 105.76488000000003 198.90161 105.46179000000002 198.80803 104.69817000000003 198.86875 C 103.53542000000003 198.96115 103.48808000000004 198.76423 104.59350000000003 198.4332 C 106.74783000000004 197.78773999999999 108.09574000000003 195.95741 107.42499000000004 194.58825 C 107.26145000000004 194.25440999999998 106.85154000000004 193.77687999999998 106.51409000000004 193.5271 C 105.64665000000004 192.88496999999998 103.35460000000003 192.90183 102.10420000000003 193.55939999999998 C 100.13572000000003 194.59481 98.97852300000004 196.09812999999997 98.97852300000004 197.62001999999998 C 98.97852300000004 198.30264999999997 98.55787200000003 198.83153 98.01490700000004 198.83153 C 97.68681300000004 198.83153 97.95428700000004 197.27051999999998 98.45442300000003 196.26699 C 99.57596100000004 194.01635 101.90470000000003 192.71260999999998 104.85482000000003 192.68374 C 108.73044000000003 192.64574 109.94380000000004 194.96242 107.28628000000003 197.32601 C 106.57648000000003 197.95731 106.35362000000003 198.2738 106.56610000000003 198.3487 C 106.73535000000004 198.40820000000002 107.20587000000003 198.76149 107.61174000000004 199.13342 C 110.03896000000005 201.35781 107.23576000000004 205.80833 103.10740000000004 206.28472 C 102.56956000000004 206.34691999999998 101.79928000000004 206.31861999999998 101.39567000000004 206.22181999999998 z M 148.43967000000004 205.8763 C 147.88345000000004 204.42681 149.26331000000005 202.63243999999997 151.36687000000003 202.06983 C 152.42502000000005 201.78681 153.63779000000002 201.94718 153.39613000000003 202.33823999999998 C 153.30793000000003 202.48094999999998 152.92007000000004 202.51969999999997 152.40490000000003 202.43733999999998 C 151.33659000000003 202.26639999999998 150.46415000000002 202.69323999999997 149.84993000000003 203.68711999999996 C 149.36974000000004 204.46406999999996 149.23619000000002 205.56819999999996 149.62253000000004 205.56819999999996 C 150.12769000000003 205.56819999999996 151.12887000000003 204.87934999999996 151.92290000000003 203.98541999999995 C 152.75987000000003 203.04322999999994 153.52329000000003 202.56097999999994 153.52329000000003 202.97450999999995 C 153.52329000000003 203.09418999999994 153.27535000000003 203.68159999999995 152.97224000000003 204.27969999999996 C 152.66913000000002 204.87781999999996 152.47890000000004 205.46056999999996 152.54942000000003 205.57473999999996 C 152.62392000000003 205.69512999999995 153.04651 205.59523999999996 153.55545000000004 205.33449999999996 C 154.26975000000004 204.97007999999997 154.54903000000004 204.63122999999996 155.05517000000003 203.51494999999997 C 155.53631000000004 202.45381999999998 155.80817000000002 202.11029999999997 156.25569000000004 201.99796999999998 C 156.57389000000003 201.91806999999997 156.87300000000005 201.89146999999997 156.92041000000003 201.93886999999998 C 156.96781000000004 201.98627 156.74947000000003 202.48507999999998 156.43523000000002 203.04734 C 156.121 203.60957 155.91025000000002 204.11593 155.96692000000002 204.17261 C 156.02372000000003 204.22941 156.53528000000003 203.8911 157.10402000000002 203.42112 C 159.40284000000003 201.52147 160.50879000000003 201.41194000000002 159.61041000000003 203.17292 C 159.35335000000003 203.67681000000002 159.19053000000002 204.13657 159.24862000000002 204.19465 C 159.30652 204.25275 159.98668 203.80319 160.7597 203.19567999999998 C 162.07706000000002 202.16043 163.30223 201.73552999999998 163.30223 202.31389 C 163.30223 202.43625999999998 162.96125 203.21373 162.54448000000002 204.04130999999998 C 162.12772 204.86888 161.87681000000003 205.60163999999997 161.98690000000002 205.66968999999997 C 162.09695000000002 205.73769 162.57682000000003 205.63738999999998 163.05321 205.44689999999997 C 163.80999 205.14408999999998 163.99548000000001 204.92132999999998 164.52167 203.68325999999996 C 164.94447 202.68842999999995 165.28239 202.20590999999996 165.65574 202.06397999999996 C 165.94821000000002 201.95279999999997 166.22366 201.89790999999997 166.26781 201.94202999999996 C 166.31201 201.98622999999995 166.00506 202.76484999999997 165.58576 203.67233999999996 C 164.52603 205.96599999999995 164.55313999999998 206.06399999999996 166.07873 205.45356999999996 C 166.87809000000001 205.13373999999996 166.97233 204.97786999999997 168.66994 201.16841999999997 C 170.18350999999998 197.77188999999996 170.51107 197.19388999999998 170.99581 197.06426999999996 C 171.30613 196.98136999999997 171.55999 196.95562999999996 171.55999 197.00706999999997 C 171.55999 197.05866999999998 170.72877 198.96094999999997 169.71287 201.23443999999998 C 168.69695000000002 203.50790999999998 167.86573 205.46191999999996 167.86573 205.5767 C 167.86573 205.87892 168.56982000000002 205.83285999999998 169.41469 205.47529 C 170.02354 205.21762 170.25559 204.90522 170.78660000000002 203.62815 C 171.13814000000002 202.7828 171.54574000000002 202.09114 171.69240000000002 202.09114 C 171.83895 202.09114 172.11187 202.03264 172.29862000000003 201.96069 C 172.53861000000003 201.86849 172.39082000000002 202.36229 171.79417000000004 203.64482 C 171.32996000000003 204.64279000000002 171.01650000000004 205.53022 171.09760000000003 205.61691000000002 C 171.17880000000002 205.70371000000003 171.61237000000003 205.66181000000003 172.06136000000004 205.52401000000003 C 172.71449000000004 205.32356000000004 172.95938000000004 205.08873000000003 173.28650000000005 204.34920000000002 C 173.99597000000006 202.74535000000003 176.05651000000006 201.63351000000003 177.66480000000004 201.98676000000003 C 178.61422000000005 202.19543000000004 178.18000000000004 202.59726000000003 177.17831000000004 202.43707000000003 C 176.61729000000003 202.34727000000004 176.12070000000003 202.41087000000005 175.70541000000003 202.62573000000003 C 174.94445000000002 203.01924000000002 174.16770000000002 204.21654000000004 174.16770000000002 204.99600000000004 C 174.16770000000002 205.95373000000004 174.93351 205.70616000000004 176.34870000000004 204.29099000000005 C 178.30856000000003 202.33113000000006 178.73462000000004 202.32760000000005 177.74554000000003 204.27829000000006 C 177.44245000000004 204.87639000000004 177.25059000000005 205.45653000000004 177.31914000000003 205.56749000000005 C 177.39054000000004 205.68292000000005 177.75979000000004 205.61859000000004 178.18207000000004 205.41707000000005 C 178.76230000000004 205.14039000000005 179.05993000000004 204.75280000000006 179.57255000000004 203.60634000000005 C 180.03992000000002 202.56112000000005 180.36730000000003 202.10948000000005 180.72753000000003 202.01300000000003 C 181.57542000000004 201.78587000000005 181.61482000000004 201.84592000000004 181.14310000000003 202.64544000000004 C 180.48715000000004 203.75718000000003 180.56750000000002 203.77642000000003 181.66004000000004 202.76937000000004 C 183.03628000000003 201.50080000000003 183.65768000000003 201.61775000000003 183.26720000000003 203.07177000000004 C 183.14653000000004 203.52076000000005 182.88310000000004 203.80632000000006 182.43230000000003 203.97647000000003 C 181.68701000000001 204.25778000000003 181.62149000000002 204.14202000000003 182.12168000000003 203.42792000000003 C 182.72222000000002 202.57056000000003 182.23896000000002 202.62368000000004 181.31704000000002 203.51642000000004 C 179.34720000000002 205.42373000000003 179.60431000000003 206.45612000000003 181.77356000000003 205.34945000000005 C 182.74031000000002 204.85624000000004 182.94847000000004 204.81333000000004 182.74034000000003 205.15002000000004 C 182.50062000000003 205.53790000000004 180.70350000000002 206.21857000000003 179.91922000000002 206.21857000000003 C 179.46797000000004 206.21857000000003 179.11125 206.08260000000004 178.98870000000002 205.86343000000002 C 178.80544000000003 205.53617000000003 178.71149000000003 205.53822000000002 177.79086 205.88993000000002 C 176.62392 206.33561000000003 176.02727000000002 206.21236000000002 176.23184 205.56784000000002 C 176.41150000000002 205.00178000000002 176.26784 205.01838 175.30094 205.67534 C 174.39236 206.29272 173.5694 206.37498 173.21054 205.88427000000001 C 172.99059 205.58334000000002 172.87135 205.58334000000002 172.01839 205.88427000000001 C 170.91933 206.27204 169.89138 206.3196 169.78078000000002 205.98766 C 169.72638000000003 205.82468 169.52515000000002 205.82468 169.09659000000002 205.98766 C 168.20648000000003 206.32608000000002 167.04954 206.27472 166.83265000000003 205.8871 C 166.66633000000002 205.59014 166.54966000000002 205.59014 165.70797000000002 205.8871 C 164.50055 206.3131 163.73683000000003 206.31519 163.73683000000003 205.8931 C 163.73683000000003 205.71395 163.69983000000002 205.56714 163.65473000000003 205.56714 C 163.60953000000003 205.56714 163.22156000000004 205.71394999999998 162.79249000000002 205.8931 C 161.76973 206.32045 160.69451 206.32292 160.69451 205.8991 C 160.69451 205.72251 160.95803 205.04067 161.28009 204.38401000000002 C 161.60215 203.72732000000002 161.80212 203.12651000000002 161.72446 203.04886000000002 C 161.53862999999998 202.86303 158.89337999999998 204.97397 158.43436 205.67451000000003 C 158.20619 206.02270000000001 157.87487 206.22024000000002 157.51888 206.22024000000002 L 156.96098 206.22024000000002 L 157.86632 204.57068 C 158.36426 203.66339000000002 158.71783 202.86727000000002 158.65207 202.80151 C 158.46933 202.61901 156.15839 204.47316 155.41378 205.39976000000001 C 154.76214000000002 206.21064 153.77976 206.56337000000002 154.03652 205.89427 C 154.19411 205.4837 154.07802 205.48651 152.94115 205.92077 C 151.84411 206.33974 151.25812 206.20090000000002 151.45853 205.5695 C 151.63819 205.00342 151.49453 205.02003 150.52764 205.677 C 149.61856999999998 206.29475 148.63627 206.38861 148.43976999999998 205.87643 z M 166.34447000000003 199.83346999999998 C 166.34447000000003 199.16118999999998 167.05400000000003 198.27254999999997 167.41344000000004 198.49468 C 167.70578000000003 198.67538 167.56256000000005 199.60632999999999 167.16960000000003 200.07983 C 166.79675000000003 200.52909 166.34446000000003 200.39406 166.34446000000003 199.83343 z M 172.64645000000002 199.73447 C 172.64645000000002 199.18331999999998 173.19951 198.39694 173.58713 198.39694 C 173.81376 198.39694 173.75883 199.46377 173.50813 199.93239 C 173.16317999999998 200.57693 172.64652999999998 200.45827 172.64652999999998 199.7345 z M 80.77698500000001 185.52133999999998 L 80.83308500000001 173.08034999999998 L 83.70672600000002 173.01975 L 86.58036700000002 172.95915 L 86.72243000000002 173.56303 C 86.97712000000001 174.64569 88.16424400000001 176.66595999999998 88.95231600000001 177.3579 C 91.507434 179.60131 95.48380600000002 179.77102 98.05759400000001 177.74647 C 98.98724700000001 177.0152 100.21611000000001 175.23891999999998 100.60743000000001 174.06079 L 100.96918000000001 172.97167 L 104.01871000000001 172.97167 L 107.06826000000001 172.97167 L 106.91560000000001 174.00391 C 106.51397000000001 176.71974999999998 104.49739000000001 180.24681999999999 102.39703000000002 181.90706 C 98.01374500000001 185.37183 92.33065700000002 185.36659 87.93710900000002 181.89436 L 86.80909600000003 181.00271 L 86.80909600000003 189.48283 L 86.80909600000003 197.96297 L 83.76498700000002 197.96297 L 80.72087200000001 197.96297 z M 36.71921700000001 184.16662999999997 C 33.72562700000001 183.50762999999998 31.55960500000001 182.26533999999998 29.424532000000006 179.98293999999996 C 27.906853000000005 178.36054999999996 26.486293000000007 175.67602999999997 26.260147000000007 174.00301999999996 L 26.120624000000007 172.97080999999997 L 29.192498000000008 172.97080999999997 C 31.615478000000007 172.97080999999997 32.26437400000001 173.03240999999997 32.26437400000001 173.26204999999996 C 32.26437400000001 173.42220999999995 32.56276400000001 174.15043999999995 32.92746600000001 174.88025999999996 C 34.50973300000001 178.04665999999997 37.74024000000001 179.67812999999995 41.18935300000001 179.05269999999996 C 43.08443500000001 178.70906999999997 44.04273100000001 178.16534999999996 45.82236800000001 176.42407999999995 C 46.664147000000014 175.60046999999994 47.356144000000015 174.92655999999994 47.36014000000001 174.92655999999994 C 47.36424000000001 174.92655999999994 47.34853000000001 176.66231999999994 47.32562000000001 178.78380999999993 L 47.283840000000005 182.64106999999993 L 46.02177400000001 183.21170999999993 C 43.34620600000001 184.42147999999992 39.61619300000001 184.80437999999992 36.719246000000005 184.1666299999999 z M 59.878353000000004 184.15122999999997 C 57.381415000000004 183.60971999999998 55.440378 182.51294999999996 53.448204000000004 180.51791999999998 C 51.586101000000006 178.65314999999998 50.653766000000005 177.14569999999998 49.999545000000005 174.94195999999997 C 49.381759 172.86093999999997 49.23686000000001 172.97128999999995 52.587487 172.97128999999995 L 55.525828000000004 172.97128999999995 L 55.760291 173.56886999999995 C 56.854787 176.35858999999994 57.913298000000005 177.61959999999993 59.917585 178.52142999999995 C 61.081729 179.04522999999995 61.553962000000006 179.13229999999996 63.231009 179.13229999999996 C 64.908056 179.13229999999996 65.38028800000001 179.04529999999997 66.54443500000001 178.52142999999995 C 67.37156700000001 178.14924999999997 68.24803200000001 177.53521999999995 68.78743700000001 176.95001999999997 C 69.68310900000002 175.97834999999998 70.722176 174.04965999999996 70.72607200000002 173.35158999999996 C 70.72807200000001 173.00741999999997 71.02015700000001 172.97128999999995 73.80006700000001 172.97128999999995 L 76.87194400000001 172.97128999999995 L 76.73242100000002 174.00350999999995 C 76.65568100000002 174.57123999999996 76.19940000000001 175.85798999999994 75.71846600000002 176.86298999999994 C 74.52870100000003 179.34923999999995 72.01650200000002 181.89828999999995 69.64165100000002 183.02903999999995 C 66.75360800000003 184.40410999999995 63.02216600000003 184.83300999999994 59.87836300000002 184.15122999999994 z M 119.14081 184.15122999999997 C 114.93525 183.13167999999996 111.47268 179.50319999999996 110.29363000000001 174.88021999999998 C 110.0716 174.00958999999997 109.93423000000001 173.22388999999998 109.98840000000001 173.13427 C 110.04260000000001 173.04477 111.40339000000002 172.97128999999998 113.01241000000002 172.97128999999998 L 115.93793000000002 172.97128999999998 L 116.17239000000002 173.56886999999998 C 117.49998000000002 176.95269999999996 119.17479000000002 178.56971 121.86760000000002 179.06748 C 123.23315000000002 179.32003999999998 125.32590000000002 179.04698 126.43874000000002 178.47169 C 128.10272000000003 177.61123 129.52217000000002 175.75038 130.34438000000003 173.35159 C 130.45952000000003 173.01550999999998 130.80411000000004 172.97128999999998 133.30658000000003 172.97128999999998 L 136.13843000000003 172.97128999999998 L 136.13843000000003 178.404 L 136.13843000000003 183.83676 L 133.20475000000002 183.83676 L 130.27107 183.83676 L 130.27107 182.5329 C 130.27107 181.81578000000002 130.21797 181.22905 130.15309000000002 181.22905 C 130.08819000000003 181.22905 129.5259 181.60919 128.90355000000002 182.07381 C 125.94574000000003 184.28203000000002 122.60905000000002 184.99203 119.14083000000002 184.15123 z M 152.49414000000002 184.15422999999996 C 151.0353 183.76134999999996 149.54288000000003 182.99885999999995 148.30777 182.01540999999995 L 147.32988 181.23676999999995 L 147.22125 182.48269999999994 L 147.11261 183.72864999999993 L 144.17892999999998 183.72864999999993 L 141.24523999999997 183.72864999999993 L 141.24523999999997 178.40453999999994 L 141.24523999999997 173.08045999999993 L 144.11454999999998 173.01985999999994 L 146.98384 172.95925999999994 L 147.20517999999998 173.78040999999993 C 147.80804999999998 176.01696999999993 149.92673 178.27697999999992 151.98060999999998 178.87438999999992 C 155.48629999999997 179.8940699999999 159.00642 178.33330999999993 160.63743 175.0361699999999 C 160.87382 174.5580999999999 161.13206 173.8980099999999 161.21105 173.56932999999992 L 161.35479 172.97173999999993 L 164.42075 172.97173999999993 L 167.48672 172.97173999999993 L 167.33914 173.89461999999992 C 166.53135999999998 178.9462599999999 162.58318999999997 183.28404999999992 157.91319 184.2507799999999 C 156.36047 184.5721999999999 153.8825 184.5279999999999 152.49429999999998 184.15427999999991 z M 180.36096 184.07422999999994 C 178.31053 183.55772999999994 177.40453 183.14522999999994 175.78947 181.99272999999994 C 173.37666 180.27098999999993 171.59643 177.76826999999994 170.70909 174.85052999999994 C 170.45987 174.03117999999995 170.25606 173.27061999999992 170.25606 173.16041999999993 C 170.25606 173.04469999999992 171.54869 172.98562999999993 173.31367999999998 173.02019999999993 L 176.37129999999996 173.08049999999994 L 176.74476999999996 174.18460999999994 C 177.95835999999997 177.77215999999993 181.53837999999996 179.76905999999994 185.47627999999997 179.05496999999994 C 187.19274 178.74369999999993 188.28186999999997 178.19815999999994 189.38090999999997 177.09912999999995 C 190.24550999999997 176.23452999999995 191.15461999999997 174.65838999999994 191.41680999999997 173.56943999999996 L 191.56078999999997 172.97184999999996 L 194.59897999999998 172.97184999999996 C 198.13564999999997 172.97184999999996 197.95943 172.79013999999995 197.02488 175.47450999999995 C 195.09996999999998 181.00367999999995 189.9166 184.51042999999996 183.72935 184.46949999999995 C 182.71344000000002 184.46249999999995 181.19771 184.28494999999995 180.36106 184.07409999999996 z M 210.59725 184.03822999999994 C 206.07189 182.92640999999995 202.47429 179.65013999999994 201.01930000000002 175.31576999999993 C 200.17350000000002 172.79614999999993 199.98654000000002 172.97196999999994 203.51127000000002 172.97196999999994 C 206.22127000000003 172.97196999999994 206.57474000000002 173.01426999999995 206.68924 173.35226999999995 C 207.55354 175.90381999999994 208.81396 177.45091999999994 210.8417 178.44916999999995 C 212.11049 179.07381999999996 212.46731 179.14972999999995 214.13227 179.14947999999995 C 216.6441 179.14904999999996 218.21745 178.42927999999995 220.29161 176.33163999999996 L 221.75844999999998 174.84818999999996 L 221.75844999999998 178.78375999999997 L 221.75844999999998 182.71929999999998 L 220.07429 183.36731999999998 C 216.92535999999998 184.57891999999998 213.72122 184.80574 210.59725 184.03822999999997 z M 233.38453 184.26357999999993 C 232.00386 183.98055999999994 230.66019 183.44301999999993 229.54588 182.72797999999995 C 228.12382000000002 181.81544999999994 226.1339 179.63038999999995 225.30513000000002 178.07138999999995 C 224.68325000000002 176.90158999999994 223.71424000000002 173.95998999999995 223.71424000000002 173.24200999999996 C 223.71424000000002 173.02126999999996 224.38373 172.97314999999998 226.79309 173.02023999999997 L 229.87192000000002 173.08053999999998 L 230.19247000000001 174.05844 C 230.90269 176.22496999999998 232.39674000000002 177.86619 234.47107000000003 178.75841 C 235.62347000000003 179.25408 238.04450000000003 179.25539 239.50625000000002 178.76140999999998 C 241.49657000000002 178.08840999999998 243.28718000000003 176.12320999999997 243.93963000000002 173.89576999999997 L 244.21015000000003 172.97220999999996 L 247.10944000000003 172.97220999999996 L 250.00873000000004 172.97220999999996 L 250.00873000000004 178.41106999999997 L 250.00873000000004 183.84995999999995 L 247.02072000000004 183.78935999999996 L 244.03269000000003 183.72875999999997 L 244.03269000000003 182.47901999999996 C 244.03269000000003 181.79152999999997 243.98159000000004 181.22925999999995 243.91925000000003 181.22945999999996 C 243.85695000000004 181.22969999999995 243.46569000000002 181.50930999999997 243.05000000000004 181.85083999999995 C 240.40011000000004 184.02813999999995 236.71864000000005 184.94716999999994 233.38456000000005 184.26370999999995 z M 26.242406 168.01845 C 26.654802 164.53641 29.621157 160.63892 33.391346 158.62549 C 36.960473 156.71944000000002 42.717490999999995 156.5979 46.141174 158.35627000000002 L 47.305363 158.95421000000002 L 47.336363 162.81146 C 47.353303 164.93296 47.346843 166.6687 47.321733 166.6687 C 47.296583000000005 166.6687 46.807697000000005 166.16774 46.235186 165.55548 C 44.180564 163.35817 42.452605999999996 162.51847999999998 39.948155 162.50036 C 36.437946 162.47476 33.634417 164.47633 32.499564 167.81759 L 32.114798 168.95042999999998 L 29.116206000000002 169.01102999999998 L 26.117614000000003 169.07162999999997 z M 49.567516 168.88552 C 49.361568 168.55227000000002 50.082876999999996 165.96381000000002 50.787627 164.50708 C 51.684365 162.65351 54.622215 159.66907 56.534834000000004 158.66872 C 60.506161000000006 156.59162 65.958363 156.59183000000002 69.927177 158.66938000000002 C 71.97078 159.73908000000003 74.656923 162.50522 75.605924 164.51721 C 76.469421 166.34793000000002 77.116572 168.62508 76.849307 168.89234000000002 C 76.750337 168.99154000000001 75.37031999999999 169.04481 73.78262199999999 169.01146000000003 L 70.895895 168.95046000000002 L 70.504723 167.68521 C 69.797768 165.3985 68.290094 163.76205000000002 66.136318 162.94368 C 64.564995 162.34663 61.876108 162.36177 60.23195200000001 162.97708 C 58.13954400000001 163.75996 56.223032 165.97723 55.776002000000005 168.13235 L 55.606269000000005 168.95062000000001 L 52.644256000000006 169.01092000000003 C 51.015151 169.04412000000002 49.630619 168.98782000000003 49.56751800000001 168.88572000000002 z M 80.869313 168.91422 C 80.789613 168.83462 80.72442500000001 166.29201 80.72442500000001 163.26416 L 80.72442500000001 157.75897 L 83.76676 157.75897 L 86.809098 157.75897 L 86.809098 159.06283 C 86.809098 159.77994999999999 86.86489800000001 160.36668 86.933098 160.36668 C 87.001298 160.36668 87.514691 159.98612 88.073974 159.52097 C 90.02937200000001 157.89467000000002 92.26049400000001 157.10703 94.911962 157.10703 C 98.329347 157.10703 100.65756 158.08508 103.13087 160.55964 C 104.4305 161.8599 104.97261 162.60903 105.66468 164.06097 C 106.47643000000001 165.76398 107.0189 167.59629 107.0189 168.63517 C 107.0189 169.03521999999998 106.84857 169.05908 103.99383 169.05908 L 100.96877 169.05908 L 100.8182 168.35281 C 100.35128 166.16267 98.613803 163.94939 96.645922 163.03795 C 95.359722 162.44223 93.20955599999999 162.31073999999998 91.664389 162.73326 C 89.220545 163.40157 87.403516 165.51773 86.466017 168.78746 C 86.40910699999999 168.98586 85.664329 169.05908000000002 83.70115999999999 169.05908000000002 C 82.22332499999999 169.05908000000002 80.94899399999998 168.99388000000002 80.86931599999998 168.91406000000003 z M 109.94751000000001 168.13552 C 110.41071000000001 165.11816000000002 111.66603 162.64761000000001 113.85000000000001 160.45531000000003 C 116.16132 158.13513000000003 118.65712 157.10703000000004 121.97832000000001 157.10703000000004 C 124.635 157.10703000000004 126.80204 157.91982000000004 129.00618 159.74291000000002 C 129.56546 160.20553 130.07887 160.58400000000003 130.14707 160.58400000000003 C 130.21537 160.58400000000003 130.27100000000002 159.94836000000004 130.27100000000002 159.17149000000003 L 130.27100000000002 157.75897000000003 L 133.20469000000003 157.75897000000003 L 136.13837000000004 157.75897000000003 L 136.13837000000004 163.40903000000003 L 136.13837000000004 169.05908000000002 L 133.32171000000002 169.05908000000002 L 130.50506000000001 169.05908000000002 L 130.25954000000002 168.13552 C 129.63229 165.77605000000003 127.69566000000002 163.52612000000002 125.73002000000001 162.87325 C 124.46757000000001 162.45391 122.19458000000002 162.40291000000002 120.98056000000001 162.76674000000003 C 120.49569000000001 162.91201000000004 119.62514000000002 163.38756000000004 119.04599000000002 163.82354000000004 C 117.48569000000002 164.99812000000003 116.73734000000002 166.22510000000003 116.01841000000002 168.78754000000004 C 115.96201000000002 168.98851000000005 115.14302000000002 169.05919000000003 112.87394000000002 169.05919000000003 L 109.80568000000002 169.05919000000003 z M 141.28759000000002 168.92038000000002 C 141.20449000000002 168.83728000000002 141.13655000000003 161.98927000000003 141.13655000000003 153.70254000000003 L 141.13655000000003 138.63573000000002 L 144.17690000000002 138.63573000000002 L 147.21724 138.63573000000002 L 147.27364 149.61321000000004 L 147.33004 160.59067000000005 L 148.41197 159.69655000000006 C 150.55187 157.92816000000005 152.77908 157.11389000000005 155.48782 157.10962000000006 C 159.52139 157.10362000000006 162.90529 158.95513000000005 165.24076 162.44696000000008 C 166.38559 164.15860000000006 167.43119 166.96012000000007 167.43119 168.31586000000007 L 167.43119 169.07135000000008 L 164.45254 169.0107500000001 L 161.47389 168.9501500000001 L 161.01072000000002 167.60422000000008 C 159.91013 164.4059900000001 157.48339 162.5237400000001 154.44826000000003 162.5141600000001 C 151.98591000000005 162.50716000000008 150.74137000000005 162.9822200000001 149.20454000000004 164.5190800000001 C 148.18110000000004 165.54251000000008 147.78518000000003 166.2100100000001 147.22740000000005 167.8524600000001 L 146.85462000000004 168.9501500000001 L 144.14672000000004 169.0107500000001 C 142.65737000000004 169.0441500000001 141.37083000000004 169.00375000000008 141.28776000000005 168.9200500000001 z M 170.25606000000002 168.67013000000003 C 170.25606000000002 167.81099000000003 170.96427000000003 165.64721000000003 171.70994000000002 164.22821000000002 C 173.18348000000003 161.42407000000003 175.93554 159.07163000000003 179.16574000000003 157.85507 C 180.66295000000002 157.29117000000002 181.04312000000002 157.24038000000002 183.83793000000003 157.23071000000002 C 186.10186000000002 157.22371 187.15823000000003 157.31191 187.96679000000003 157.5782 C 191.51441000000003 158.74717 193.90858000000003 160.56201000000001 195.79641000000004 163.51316 C 196.59628000000004 164.76356 197.63707000000005 167.58323 197.63707000000005 168.49981 L 197.63707000000005 169.05911 L 194.69657000000007 169.05911 C 192.53938000000005 169.05911 191.73094000000006 168.98671000000002 191.66171000000006 168.78747 C 190.87632000000005 166.52666000000002 190.49976000000007 165.80208000000002 189.62340000000006 164.86521000000002 C 187.87212000000005 162.99290000000002 185.74044000000006 162.27124 182.83843000000007 162.56816 C 179.83633000000006 162.8753 177.61661000000007 164.75969 176.65189000000007 167.82013 L 176.26135000000008 169.05911 L 173.2587000000001 169.05911 C 170.51842000000008 169.05911 170.25606000000008 169.02521000000002 170.25606000000008 168.67013 z M 200.46212000000003 168.63573000000002 C 200.46212000000003 167.71384000000003 201.58646000000002 164.74916000000002 202.41493000000003 163.48657000000003 C 203.45490000000004 161.90158000000002 205.63394000000002 159.80545000000004 207.11479000000003 158.96544000000003 C 209.17934000000002 157.79435000000004 211.02162000000004 157.29321000000002 213.72348000000002 157.16776000000002 C 216.40488000000002 157.04326 218.45310000000003 157.39876 220.72623000000002 158.38311000000002 L 221.75845 158.83015 L 221.75845 162.77663 L 221.75845 166.72314 L 220.34667000000002 165.29742 C 219.44739 164.38923 218.42497000000003 163.62061999999997 217.5302 163.18013 C 216.18218000000002 162.51650999999998 216.03973000000002 162.49235 213.9982 162.58146 C 211.56965 162.6874 210.6298 163.05881 209.00888 164.55291 C 207.9116 165.56434 207.14639 166.77719 206.74851 168.13557 L 206.47798 169.05914 L 203.47004 169.05914 C 200.63354 169.05914 200.46212 169.03604 200.46212 168.63573000000002 z M 223.71745000000004 168.57033 C 223.72445000000005 167.58157 224.38084000000003 165.32354 225.04566000000005 164.00458 C 227.29215000000005 159.5478 231.06472000000005 157.09765000000002 235.65761000000006 157.11256 C 238.46571000000006 157.12256 240.15985000000006 157.71768 242.57610000000005 159.54652000000002 C 243.33015000000006 160.11724 243.96635000000006 160.58439 243.98988000000006 160.58466 C 244.01298000000006 160.58489 243.99988000000005 159.94928000000002 243.95988000000006 159.17215000000002 L 243.88698000000005 157.75917 L 246.94788000000005 157.75917 L 250.00875000000005 157.75917 L 250.00875000000005 163.41554000000002 L 250.00875000000005 169.07189000000002 L 247.16840000000005 169.01129000000003 L 244.32804000000004 168.95069000000004 L 243.95957000000004 167.86131000000003 C 242.75591000000003 164.30270000000004 240.38898000000003 162.48525000000004 236.97566000000003 162.49872000000002 C 235.60741000000004 162.50472000000002 235.04609000000002 162.61528 234.08293000000003 163.07077 C 232.19115000000002 163.96571 230.36505000000002 166.28125 229.91712000000004 168.35307 L 229.76440000000005 169.05934 L 226.73933000000005 169.05934 C 223.74615000000006 169.05934 223.71432000000004 169.05334 223.71748000000005 168.57039999999998 z" stroke-linecap="round" />
</g>
		<g transform="matrix(3.78 0 0 3.78 428.04 -99.75)" id="3rPCnFqbnSMCNSG2UN9Du"  >
<path style="stroke: none; stroke-width: 0.17; stroke-dasharray: none; stroke-linecap: butt; stroke-dashoffset: 0; stroke-linejoin: miter; stroke-miterlimit: 4; fill: rgb(0,0,0); fill-rule: nonzero; opacity: 1;" vector-effect="non-scaling-stroke"  transform=" translate(-259.68, -148.2)" d="M 257.22357 154.41867 C 255.21472 153.9201 253.48394 152.47429 252.90350999999998 150.80996 C 252.48592 149.61252 252.52883999999997 147.47313 252.99670999999998 146.1678 C 253.67723999999998 144.26881 255.06568 142.89382 257.12374 142.08067 C 258.46281 141.55161 261.11304 141.55702 262.46822 142.09277 C 264.39221999999995 142.85171 265.81505999999996 144.36907 266.40612999999996 146.29228 C 267.55576999999994 150.03274000000002 265.77045 153.58954 261.71912 154.54474 C 260.48330999999996 154.83608999999998 258.36104 154.70216 257.22362 154.41951 z M 262.47835 153.82189 C 263.67222 153.37521 265.07734 152.10226 265.63523 150.96199 C 267.11116999999996 147.94525 265.43962999999997 143.61452 262.35362 142.45988999999997 C 259.20356 141.28130999999996 255.23827999999997 142.55548999999996 253.79315999999997 145.21061999999998 C 252.22234999999998 148.09671999999998 253.52157999999997 152.01203999999998 256.54326 153.49832999999998 C 257.09893999999997 153.77164 257.88775999999996 154.06535999999997 258.29616 154.15099999999998 C 259.39327 154.38107999999997 261.40745 154.22249999999997 262.47835 153.82189 z M 258.59797 151.88979 C 257.96139999999997 151.88979 256.46445 151.12677 256.00255 150.60955 L 255.63008 150.19912000000002 C 255.39377 149.90498000000002 255.28266 149.79227000000003 255.28091999999998 149.56628000000003 C 255.28001999999998 149.42575000000002 255.23611999999997 149.51798000000002 255.48345999999998 149.86141000000003 C 255.59271999999999 150.01310000000004 255.90436999999997 150.30726000000004 255.90436999999997 150.30726000000004 C 256.71155999999996 151.04885000000004 257.38905 151.37504000000004 258.47056999999995 151.47311000000005 C 261.19241999999997 151.71992000000006 262.95579999999995 150.44222000000005 263.3427 147.94284000000005 C 263.43519999999995 147.34501000000006 263.4018 147.23209000000006 263.08166 147.06077000000005 C 262.76679 146.89237000000006 262.72901 146.77338000000006 262.81643 146.22664000000006 C 262.90523 145.67117000000005 262.85133 145.51258000000007 262.39683 144.99505000000005 C 261.58771 144.07349000000005 260.72228 143.70118000000005 259.36878 143.69232000000005 C 257.96642 143.68232000000006 257.32618 143.98307000000005 256.68655 144.94872000000007 C 256.28471 145.55541000000005 256.2271 145.81480000000008 256.17712 147.24242000000007 C 256.12782 148.64937000000006 256.11332 148.97397000000007 255.80191 149.23681000000008 C 255.5699 149.43265000000008 255.21128 149.57181000000008 255.26532 149.49315000000007 C 255.29362 149.45205000000007 255.47706 149.40725000000006 255.75955 149.15990000000008 C 256.04321999999996 148.9114600000001 255.96963 148.56876000000008 255.88151 147.52749000000009 C 255.74469 145.9085900000001 256.0791 144.83766000000008 256.974 144.02918000000008 C 258.6543 142.5111200000001 261.63000999999997 142.93800000000007 263.0521 144.90112000000008 C 263.52905 145.72080000000008 263.3823 145.64725000000007 263.80576 145.37785000000008 C 264.1676 145.14448000000007 264.25485000000003 145.14846000000009 264.25932 145.2609500000001 C 264.26332 145.35995000000008 264.21862 145.51970000000009 264.02587 145.99775000000008 C 263.81356999999997 146.4693100000001 263.6948 146.24423000000007 264.62149 146.6413900000001 C 264.89456 146.7482300000001 264.92644 146.80433000000008 264.92781 146.8511200000001 C 264.92981000000003 146.9200200000001 264.77542 146.9366200000001 264.51693 147.0311200000001 C 264.44243 147.0584200000001 264.35474 147.0843200000001 264.2597 147.1024200000001 C 263.77599000000004 147.2160500000001 263.93352 147.06582000000012 263.87309 148.01148000000012 C 263.78879 148.88928000000013 263.2856 150.02297000000013 262.69498 150.6660800000001 C 262.49917 150.8792800000001 261.9813 151.2357500000001 261.54416 151.4582600000001 C 261.17854 151.6878400000001 261.15387 151.6971200000001 260.60621999999995 151.8216100000001 L 260.09907999999996 151.9238500000001 C 259.09903999999995 152.0035500000001 258.64221999999995 151.8899500000001 258.59797 151.8896500000001 z M 263.69325 146.71344 C 263.25615 146.45627 263.32379 146.63844 263.50458 146.18214999999998 C 263.60548 145.84463999999997 263.59477999999996 145.83966999999998 263.3243 146.09904999999998 C 262.95803 146.45027999999996 263.12089 146.89720999999997 263.61274 146.89065999999997 C 263.95378999999997 146.88665999999998 263.96135 146.86935999999997 263.69313999999997 146.71329999999998 z M 257.60693999999995 150.72436 C 256.65972999999997 150.6111 256.61319 149.84276 257.47146999999995 148.48936999999998 C 258.11959999999993 147.46738 259.02615999999995 146.88889999999998 260.01054999999997 146.86915 C 260.43611 146.86114999999998 261.39106 146.95614999999998 261.448 147.01326 C 261.50489999999996 147.07016000000002 260.80969 147.11056 260.56478 147.11056 C 259.94205999999997 147.11056 258.9597 147.49175 258.40485 148.01836 C 257.85652 148.53877 257.30608 149.54376 257.30608 150.0245 C 257.30608 150.30626999999998 257.41196 150.36111 257.95542 150.36111 C 259.27289 150.36111 260.32706 149.5376 261.01268 148.08981 C 261.32556 147.42906 261.50951 146.83161 261.51079999999996 147.167 C 261.51279999999997 147.79784 260.76232 149.54111 260.10846 150.06057 C 259.52087 150.52742 258.41463999999996 150.82096 257.60695999999996 150.72437000000002 z M 260.94302999999996 145.99607999999998 C 260.70950999999997 145.71472999999997 260.76995999999997 145.21836999999996 261.04902 145.12544999999997 C 261.30539 145.04004999999998 261.62293 145.64475999999996 261.49574 145.97617999999997 C 261.37159 146.29947999999996 261.19993 146.30565999999996 260.94301 145.99607999999998 z" stroke-linecap="round" />
</g>
		<g transform="matrix(3.78 0 0.09 3.78 424.27 -82.87)" id="IecRNzNVNAuqNZaCm5atW"  >
<path style="stroke: none; stroke-width: 0.03; stroke-dasharray: none; stroke-linecap: butt; stroke-dashoffset: 0; stroke-linejoin: miter; stroke-miterlimit: 4; fill: rgb(0,0,0); fill-rule: nonzero; opacity: 1;" vector-effect="non-scaling-stroke"  transform=" translate(-0.15, -0.87)" d="M 0 1.7323 L 0 0 L 0.29627 0 L 0.29627 1.7323 z" stroke-linecap="round" />
</g>
		<g transform="matrix(3.78 0 -0.26 3.77 425.75 -81.7)" id="6TK3fxpiPaoV7Ude3FAR3"  >
<path style="stroke: none; stroke-width: 0.02; stroke-dasharray: none; stroke-linecap: butt; stroke-dashoffset: 0; stroke-linejoin: miter; stroke-miterlimit: 4; fill: rgb(0,0,0); fill-rule: nonzero; opacity: 1;" vector-effect="non-scaling-stroke"  transform=" translate(-0.15, -0.48)" d="M 0 0.96759 L 0 0 L 0.29204 0 L 0.29204 0.96759 z" stroke-linecap="round" />
</g>
		<g transform="matrix(3.78 0 0.32 3.77 425.9 -82.75)" id="ZhaC8cQpKoC03ScqmhN6t"  >
<path style="stroke: none; stroke-width: 0.02; stroke-dasharray: none; stroke-linecap: butt; stroke-dashoffset: 0; stroke-linejoin: miter; stroke-miterlimit: 4; fill: rgb(0,0,0); fill-rule: nonzero; opacity: 1;" vector-effect="non-scaling-stroke"  transform=" translate(-0.15, -0.53)" d="M 0 1.06459 L 0 0 L 0.29364 0 L 0.29364 1.06459 z" stroke-linecap="round" />
</g>
		<g transform="matrix(3.78 0 0.12 3.78 430.65 -83.03)" id="jdrJkS52jXCdc16FAkj2-"  >
<path style="stroke: none; stroke-width: 0.03; stroke-dasharray: none; stroke-linecap: butt; stroke-dashoffset: 0; stroke-linejoin: miter; stroke-miterlimit: 4; fill: rgb(0,0,0); fill-rule: nonzero; opacity: 1;" vector-effect="non-scaling-stroke"  transform=" translate(-0.15, -0.8)" d="M 0 1.59641 L 0 0 L 0.29612 0 L 0.29612 1.59641 z" stroke-linecap="round" />
</g>
		<g transform="matrix(3.78 0 -0.26 3.77 432.08 -82.06)" id="mTBsIAIZHcvQ1bvcIhLic"  >
<path style="stroke: none; stroke-width: 0.02; stroke-dasharray: none; stroke-linecap: butt; stroke-dashoffset: 0; stroke-linejoin: miter; stroke-miterlimit: 4; fill: rgb(0,0,0); fill-rule: nonzero; opacity: 1;" vector-effect="non-scaling-stroke"  transform=" translate(-0.15, -0.48)" d="M 0 0.96759 L 0 0 L 0.29204 0 L 0.29204 0.96759 z" stroke-linecap="round" />
</g>
		<g transform="matrix(3.78 0 0.32 3.77 432.28 -83.11)" id="Lr5U4cqseEW9LMbPaXuQ2"  >
<path style="stroke: none; stroke-width: 0.02; stroke-dasharray: none; stroke-linecap: butt; stroke-dashoffset: 0; stroke-linejoin: miter; stroke-miterlimit: 4; fill: rgb(0,0,0); fill-rule: nonzero; opacity: 1;" vector-effect="non-scaling-stroke"  transform=" translate(-0.15, -0.53)" d="M 0 1.06459 L 0 0 L 0.29364 0 L 0.29364 1.06459 z" stroke-linecap="round" />
</g>
</g>
</g>
</svg>